<svg width="20" height="20" viewBox="0 0 20 20" fill="none" xmlns="http://www.w3.org/2000/svg">
<g clip-path="url(#clip0_3155_7840)">
<path d="M15.9408 11.4948C16.1667 11.094 16.6751 10.9524 17.076 11.1782L18.326 11.8821L18.3276 11.8829C18.5841 12.0283 18.7977 12.2394 18.9461 12.4941C19.0945 12.7488 19.1723 13.0384 19.1724 13.3331C19.1724 13.6279 19.0945 13.9175 18.9461 14.1722C18.7983 14.4259 18.5853 14.6356 18.3301 14.7809L18.3309 14.7817L11.2492 18.8377L11.25 18.8385C10.87 19.0579 10.4388 19.173 10 19.173C9.5612 19.173 9.13001 19.0579 8.75 18.8385L1.66911 14.7817C1.41423 14.6364 1.2016 14.4257 1.05387 14.1722C0.90558 13.9175 0.827637 13.6278 0.827637 13.3331C0.827669 13.0384 0.905522 12.7488 1.05387 12.4941C1.2023 12.2394 1.41588 12.0283 1.67236 11.8829L1.6748 11.8821L2.9248 11.1782C3.32562 10.9526 3.83329 11.0942 4.05924 11.4948C4.28509 11.8957 4.14346 12.404 3.74268 12.63L2.4943 13.3331L2.49756 13.3356L9.58089 17.3932L9.58333 17.3948C9.70999 17.468 9.85375 17.5063 10 17.5063C10.1463 17.5063 10.29 17.468 10.4167 17.3948L10.4191 17.3932L17.5024 13.3356L17.5057 13.3331L16.2581 12.63C15.8572 12.4041 15.7149 11.8957 15.9408 11.4948Z" fill="#666666"/>
<path fill-rule="evenodd" clip-rule="evenodd" d="M10 0.82663C10.4378 0.82663 10.8674 0.942697 11.2467 1.1611L11.2476 1.16029L18.3268 5.21628C18.5833 5.36164 18.7977 5.57271 18.9461 5.82744C19.0945 6.08213 19.1723 6.37171 19.1724 6.66647C19.1724 6.96121 19.0945 7.25083 18.9461 7.5055C18.7982 7.75929 18.5853 7.96892 18.3301 8.11423L18.3309 8.11504L11.2492 12.171L11.25 12.1718C10.87 12.3912 10.4388 12.5063 10 12.5063C9.5612 12.5063 9.13001 12.3912 8.75 12.1718L1.66911 8.11504C1.41422 7.96975 1.20161 7.75904 1.05387 7.5055C0.90556 7.25085 0.827637 6.96118 0.827637 6.66647C0.827657 6.37174 0.905515 6.08211 1.05387 5.82744C1.2023 5.57271 1.41587 5.36164 1.67236 5.21628L8.75244 1.16029C9.13198 0.941618 9.56195 0.826646 10 0.82663ZM10 2.4933C9.85375 2.49331 9.70999 2.53166 9.58333 2.60479L9.58089 2.60641L2.49756 6.66485L2.4943 6.66647L2.49756 6.66891L9.58089 10.7265L9.58333 10.7282C9.70999 10.8013 9.85375 10.8396 10 10.8397C10.1463 10.8397 10.29 10.8013 10.4167 10.7282L10.4191 10.7265L17.5024 6.66891L17.5057 6.66647L17.5024 6.66485L10.4191 2.60641L10.4167 2.60479C10.29 2.5317 10.1462 2.4933 10 2.4933Z" fill="#666666"/>
</g>
<defs><clipPath id="clip0_3155_7840"><rect width="20" height="20" fill="white"/></clipPath></defs>
</svg>
